PathFileType	4	(X/Y/Z)	0_1_29_p1_0-261.trc
DataRate	CameraRate	NumFrames	NumMarkers	Units	OrigDataRate	OrigDataStartFrame	OrigNumFrames
60	60	7	27	m	60	163	261
Frame#	Time	RHip			RKnee			RAnkle			RBigToe			RSmallToe			RHeel			LHip			LKnee			LAnkle			LBigToe			LSmallToe			LHeel			Neck			Head			Nose			RShoulder			RElbow			RWrist			RThumb			RIndex			RPinky			LShoulder			LElbow			LWrist			LThumb			LIndex			LPinky		
		X1	Y1	Z1	X2	Y2	Z2	X3	Y3	Z3	X4	Y4	Z4	X5	Y5	Z5	X6	Y6	Z6	X7	Y7	Z7	X8	Y8	Z8	X9	Y9	Z9	X10	Y10	Z10	X11	Y11	Z11	X12	Y12	Z12	X13	Y13	Z13	X14	Y14	Z14	X15	Y15	Z15	X16	Y16	Z16	X17	Y17	Z17	X18	Y18	Z18	X19	Y19	Z19	X20	Y20	Z20	X21	Y21	Z21	X22	Y22	Z22	X23	Y23	Z23	X24	Y24	Z24	X25	Y25	Z25	X26	Y26	Z26	X27	Y27	Z27
164	2.7333333333333334	0.12167106108774961	0.16859676042419325	-0.01630057723152795	0.12522603104630295	0.12717698272338826	-0.3988570867257539	0.15843124911242332	0.2003551951946736	-0.7806560938249634	0.18401211674078058	0.06474845820276494	-0.8043836166101576	0.10211920094002444	0.07276998487697317	-0.790388958267634	0.17554935353108317	0.22618958959896507	-0.8255343137770857	0.3345664049369266	0.15732067082340565	-0.009349324670921855	0.32632617698754623	0.09529182940751865	-0.3825715976471065	0.3259940066864466	0.15988155333151405	-0.7361499117431823	0.32652245964593446	0.053720391587458324	-0.7899647541950535	0.3694527702190114	0.10889673655722373	-0.8072176793785637	0.32633422874186685	0.2499737606746413	-0.8254580847472657	0.2000978664649364	0.16205045354769293	0.4842919014091544	0.18393359356269975	0.002844818844854998	0.7688855359414422	0.1873377958419698	-0.02677202773220822	0.596486161024979	0.06393397930293154	0.16704305985487966	0.4467126648958852	-0.01944756957180085	0.2980727532124207	0.20247397522650404	0.055720120562078264	0.106119988735904	0.09229134327237232	0.11825449354866621	-0.004422965664520929	0.07250426866837384	0.09773438239207244	0.0011697968837702335	0.05881218040407325	0.07261021707029662	0.05615436794470129	0.016814285971732755	0.35745775682972225	0.1517361701316634	0.4559879480028072	0.4456487168105875	0.199338042392285	0.22372059350457266	0.3491858160602711	0.06460469764900388	0.1250650820587788	0.263143099278628	0.061397204088815355	0.10556033529542865	0.26526244886427647	0.044175019273526066	0.07030361420684941	0.3030342226867397	0.032957329969412696	0.05379740103460443
165	2.75	0.11922594504154607	0.17988564386851422	-0.012921689416296425	0.12527441985241175	0.1286204690557306	-0.39587754805626907	0.15828698626633905	0.2002404222992354	-0.7803234925524917	0.18371127273956442	0.06536817290395106	-0.8047675774034964	0.09986993978525897	0.08297316406588919	-0.8027116059651511	0.1701730306766082	0.2116121794753062	-0.8147485743657041	0.33540579719265434	0.15991294678986362	0.005576490369774835	0.32640901176120185	0.09522467292492263	-0.38223457611693584	0.330818922755738	0.15665413437659675	-0.7293344924938977	0.32545155763542655	0.06440974664543708	-0.8024578478648996	0.36982866573816453	0.11101618901591788	-0.8036072436911569	0.3216678345452892	0.2347692796003818	-0.8046631100527416	0.2037275038821597	0.16308861591118545	0.49108004916125053	0.1809494523882228	0.004151226642547049	0.7721984933033703	0.18399773207427605	-0.02435636035097217	0.6029123101608386	0.06820382988792888	0.18045609229437526	0.44662228550559335	-0.01621010778066995	0.285701670149477	0.20598834276409633	0.06337226556126342	0.09305035360181425	0.09714559568855517	0.1297045107424775	-0.016530956931063545	0.08479836869738422	0.11872902266022092	-0.0070069078835407585	0.06950617654843871	0.08200545264814223	0.027730221841616845	0.0402096864495657	0.35566831430789864	0.16501026871599836	0.46422200765238153	0.45384244086423664	0.22087535039963946	0.23655291619239832	0.36014508075837065	0.07794751272442381	0.13170794085870965	0.2682757723980169	0.0660170369989005	0.10218137827965872	0.2811600608652512	0.05414911219615715	0.06775876503349518	0.3112191218273461	0.03273197782789208	0.05359465265735475
166	2.7666666666666666	0.11996121766258773	0.18046410071730354	-0.005089934303296338	0.12056309437387018	0.11762155575481967	-0.38479786945270483	0.15721755408211696	0.20128573800615815	-0.7755808649496277	0.17948088428044764	0.05163209426430583	-0.7897418926339139	0.09892372771969772	0.0842039278335668	-0.7984543523126074	0.16993207652771827	0.2116861620086817	-0.8043709718316193	0.3352277145323541	0.15878417830127714	0.002360106770249628	0.33210530750412975	0.10922981511629286	-0.37709899734591634	0.32868506976179324	0.1713630916302037	-0.7345364050942422	0.32469148759777217	0.06741144144210177	-0.7947306421053603	0.36366311252367234	0.09803752560518135	-0.7934384885745628	0.3203233709624977	0.245709672715	-0.8070507947570559	0.20879369797225633	0.1760458323171629	0.49137726115758207	0.1807359337288488	0.004471805056125852	0.7725024220809332	0.1842044331269137	-0.022934869129254156	0.60884070097697	0.06849272782132744	0.18130860622046568	0.45409633221613066	-0.012676289858068745	0.2737496737449453	0.21405078680494422	0.0670610466526772	0.08171176311214325	0.10617697460367423	0.13473071261807054	-0.00506834967375841	0.08401543381164604	0.12640484106247235	-0.019526583677352435	0.07907087081586155	0.10192548320917852	-0.0096149217602549	0.06995272963253266	0.35568434555247264	0.16723494113518084	0.4720021811918753	0.4591409247782954	0.24090054613478395	0.24586637029997305	0.37093901174306704	0.08973931949506268	0.13143281399950804	0.2910462179147792	0.06986432844879094	0.11219323839758537	0.3008503900439703	0.04837437884489399	0.07567700679027332	0.3393533959248471	0.0699645814529392	0.04102805981908488
167	2.783333333333333	0.11560947810121752	0.17987374058392333	-0.011967855233295417	0.12109362724760803	0.13022501970856087	-0.38923997745057987	0.15787576365087277	0.20007877133824017	-0.7698241538913531	0.18452632038338954	0.06438765507686915	-0.7996572344357351	0.09905376177811342	0.08374148692720161	-0.7980943934241377	0.16880901724492658	0.21262233092682917	-0.7999449910835006	0.33516823728483425	0.15615738744265692	-0.004694588510307805	0.33289099815870105	0.10844879722011815	-0.37169206205546673	0.3289723441410605	0.17317537282805823	-0.7310821626710754	0.32555772481030615	0.06665792691109475	-0.7983740501570349	0.3590302639097103	0.08648381464808758	-0.7838095061969553	0.32004003404400333	0.24897324687820632	-0.8091988836068859	0.20649919160672853	0.1880259327088478	0.49635839674325183	0.17708243630265183	0.00770650257685842	0.7787179514984087	0.18132853157672388	-0.019816197701951064	0.6221581125936274	0.06856725685522357	0.18134632122517064	0.45417977010238125	-0.008528791047588021	0.2602246623229771	0.22245325607761982	0.06752525510367349	0.08271841114075815	0.11785622427288633	0.13707767048072772	-0.021365985224522033	0.12137936979369894	0.13576023957649613	-0.03944763334207191	0.09556492201922788	0.11407638753848032	-0.026537455448775827	0.08191895590221521	0.357453686180897	0.17607725121743653	0.4772806509859116	0.47222207029701435	0.27055173260396287	0.24888752199706674	0.38743252539397116	0.09890507900023297	0.13889986160820128	0.3077341654510485	0.06687891299849018	0.12037281657360459	0.310491445915603	0.05081081523971074	0.08080296058046729	0.3478993098607788	0.11931340167554731	0.027236758865430494
168	2.8	0.1223014221211357	0.16595793065021466	-0.010123019035709589	0.12014256746792096	0.12988068454772184	-0.39752452419411044	0.15706277906673866	0.2014874644116563	-0.7760779084641495	0.18504922942828705	0.06386285745428262	-0.8086324312210686	0.09993632523224961	0.08070010492222113	-0.8058438459384167	0.16491406071087725	0.2274002119321124	-0.8156903827054262	0.3372122500002608	0.1442450881986583	0.0002893467350293808	0.33217885186110313	0.10785561754639626	-0.38030396836499397	0.3270427706315378	0.18383738299075203	-0.747964744485258	0.3202126130017532	0.05442443503132218	-0.7886519321128548	0.3589192355068902	0.08627436579099194	-0.7835641972422381	0.3214912559152801	0.24746071377458964	-0.8077372460338588	0.21301681689430826	0.17759210498163158	0.5058915878698298	0.17715254488729285	0.008283823243287865	0.782181880597892	0.18487013090877125	-0.021415987297514878	0.622901907524742	0.06853150198468556	0.18318554322306269	0.4617991411778664	-0.0006020173946232176	0.24642714057738696	0.22680560208096961	0.07324418885457082	0.0790172105118899	0.13098627665709478	0.14098147378591178	-0.030871837151702938	0.1386717055649007	0.13679202118951825	-0.03519273028258839	0.11601105324885347	0.11801289971766481	-0.027598697538526788	0.0866031922013492	0.3579425548968077	0.17628107645119562	0.4844482743710224	0.4791473348892075	0.28779113053514843	0.2606131409124395	0.40552602293579826	0.11226008403824801	0.14132982323831086	0.3285214635975822	0.11570646789307891	0.107245839412258	0.3398368704325302	0.09063959964692811	0.0755216268292058	0.36020749853251477	0.12053076199949611	0.04247182338917999
169	2.816666666666667	0.12202122616280651	0.16648352440906516	-0.0057492539038217555	0.1191901596565647	0.12946126277605752	-0.3962671983198049	0.1570017639955511	0.20156196369398274	-0.7765160366306377	0.17994127630627935	0.06650537554218762	-0.8058009407914369	0.09916872927747981	0.08158248663830252	-0.8013561623007377	0.16578195787530584	0.22670582557266356	-0.8201369577476371	0.33676405929565345	0.14450802083786143	0.0035941074386555277	0.3315953715180377	0.10957496470748108	-0.37702922583190346	0.3216971992529225	0.18527552499282784	-0.7486845529747153	0.3257199281026282	0.06690101635546326	-0.798315649095777	0.36291631350964804	0.08348409021320866	-0.786761100929244	0.3196665575848393	0.24501394932814968	-0.8212403274396542	0.21810969626791196	0.1891818810737035	0.5072273601269991	0.1806882904474597	0.00621438949891525	0.786127984349597	0.18510964527248583	-0.021022125098261343	0.6295351813625751	0.06470509567731302	0.17061802158226977	0.4688013959868355	0.003159291168149442	0.23500769371602503	0.234654057136708	0.07390690981386962	0.08060297229520273	0.13987469224216237	0.14190570763388838	-0.029659512764002593	0.15377034624228525	0.1369377582310912	-0.030874575395564655	0.13528563046758685	0.11803015708682711	-0.016940680605404754	0.0899872604824956	0.36693584064489615	0.18566642841327233	0.48960275199684106	0.4836270298096845	0.2840376581583529	0.26990493509882835	0.42732217374611975	0.14793581034508943	0.13603540927966443	0.3399639439696141	0.14261187115508447	0.1018402411055076	0.3521828975811724	0.08832339644381795	0.08351599522358889	0.37587808433914366	0.11677279356273058	0.04919561761432381
170	2.8333333333333335	0.12277357719250752	0.1668296670188871	0.0029322602323952314	0.12350800749745489	0.1298198300646142	-0.39233451933892866	0.15702029724313918	0.20158456553063425	-0.7763279543473368	0.17971764437677562	0.06742664081001641	-0.80615611004683	0.09935299330433821	0.08370022666726581	-0.7982474370331347	0.16576235607989112	0.2266221776696703	-0.819925310969806	0.33687757254572115	0.1447136094059188	0.003951059845355843	0.3309153935532872	0.10911480539029132	-0.37687731607639213	0.3226275058247928	0.18468100975451804	-0.7532605034987071	0.3301597825873416	0.06475561690613951	-0.7972047234607011	0.36295087216428434	0.08347182908507582	-0.7868069556556231	0.31939633234136217	0.24516402360532966	-0.8214045443985344	0.21812238259549954	0.18894323395214466	0.5075240481253126	0.18090634144456239	0.008177544517196987	0.7921497992344596	0.18959908091973157	-0.009655337135120316	0.633911877570147	0.06898791502249071	0.1837445038176085	0.4690203104406039	0.010711873365574963	0.2232718714215578	0.24216493443202802	0.07647000520511858	0.07184759156033053	0.1618618243939008	0.14904338607940235	-0.04217239838679518	0.1699767972953602	0.1433800652154289	-0.041450790523503665	0.15191152060639243	0.12183185967316819	-0.023365897742345338	0.10784865974006398	0.3709735807315194	0.1833179775416694	0.4938844587541726	0.49361284338013467	0.29573195398257435	0.27486105747008455	0.43337433155834687	0.16039630218283427	0.1355831944505666	0.34108514367969345	0.1447705155462902	0.10555647949848719	0.3580240588946167	0.09876758976769742	0.09151178666873439	0.3931593243871371	0.11482766009202074	0.0604154602815017
